<svg width="248" height="199pt" viewBox="0 0 185.76 198.7" xmlns="http://www.w3.org/2000/svg"><g class="graph" transform="translate(4 194.7)"><path fill="#fff" stroke="transparent" d="M-4 4v-198.7h185.76V4H-4z"/><text text-anchor="middle" x="88.88" y="-7.8" font-family="Times,serif" font-size="14">Sample graph</text><g class="node"><path fill="#7fc97f" stroke="#000" d="M74.88-130.71l-27 18 27 18 27-18-27-18z"/><text text-anchor="middle" x="74.88" y="-109.01" font-family="Times,serif" font-size="14">A</text></g><g class="node"><path fill="#beaed4" stroke="#000" d="M177.76-142.49h-54v36h54v-36z"/><text text-anchor="middle" x="150.76" y="-120.79" font-family="Times,serif" font-size="14">B</text></g><g class="edge"><path fill="none" stroke="gray" stroke-dasharray="5,2" d="M96.83-116.12c5.25-.81 11.01-1.71 16.74-2.6"/><path fill="gray" stroke="gray" d="M113.32-122.22l10.42 1.92-9.34 5-1.08-6.92z"/></g><g class="node"><circle fill="#fdc086" stroke="#000" cx="47.51" cy="-41" r="18"/><text text-anchor="middle" x="47.51" y="-37.3" font-family="Times,serif" font-size="14">C</text></g><g class="edge"><path fill="none" stroke="#000" d="M67.47-98.91c-3.36 8.8-7.75 20.31-11.72 30.7"/><path fill="none" stroke="transparent" d="M69.34-98.2c-3.36 8.81-7.75 20.32-11.72 30.7"/><path fill="none" stroke="#000" d="M71.21-97.49c-3.36 8.81-7.76 20.32-11.72 30.71"/><path stroke="#000" d="M60.84-66.11L54-58.01l.3-10.59 6.54 2.49z"/></g><g class="node"><ellipse fill="#ff9" stroke="#000" cx="27" cy="-172.7" rx="27" ry="18"/><text text-anchor="middle" x="27" y="-169" font-family="Times,serif" font-size="14">D</text></g><g class="edge"><path fill="none" stroke="#000" stroke-width="5" d="M65.42-124.56c-7.3-9.15-17.49-21.91-25.54-32"/></g></g></svg>